<svg width="25" height="26" viewBox="0 0 25 26" fill="none" xmlns="http://www.w3.org/2000/svg">
<path d="M1.98536 13.6685C2.66389 10.2758 3.00316 8.57951 4.12417 7.48697C4.33136 7.28504 4.55551 7.10128 4.79415 6.93771C6.08533 6.05273 7.81524 6.05273 11.2751 6.05273H13.4262C16.886 6.05273 18.6159 6.05273 19.9071 6.93771C20.1457 7.10128 20.3699 7.28504 20.5771 7.48697C21.6981 8.57951 22.0373 10.2758 22.7159 13.6685C23.69 18.5392 24.1771 20.9746 23.0558 22.7003C22.8528 23.0128 22.6159 23.3018 22.3493 23.5622C20.877 25.0001 18.3934 25.0001 13.4262 25.0001H11.2751C6.30787 25.0001 3.82427 25.0001 2.35196 23.5622C2.08538 23.3018 1.84842 23.0128 1.6454 22.7003C0.52414 20.9746 1.01121 18.5392 1.98536 13.6685Z" stroke="#333333" stroke-width="1.5"/>
<path d="M8.56152 6.05263V4.78947C8.56152 2.69661 10.2581 1 12.351 1C14.4439 1 16.1405 2.69661 16.1405 4.78947V6.05263" stroke="#333333" stroke-width="1.5" stroke-linecap="round"/>
<path d="M8.77734 17.4209C9.29756 18.8928 10.7012 19.9473 12.3512 19.9473C14.0012 19.9473 15.4048 18.8928 15.925 17.4209" stroke="#333333" stroke-width="1.5" stroke-linecap="round"/>
</svg>
